G04 #@! TF.GenerationSoftware,KiCad,Pcbnew,(5.1.5)-3*
G04 #@! TF.CreationDate,2024-11-30T00:03:08+01:00*
G04 #@! TF.ProjectId,tan-usb-pwr,74616e2d-7573-4622-9d70-77722e6b6963,B*
G04 #@! TF.SameCoordinates,PX57bcf00PY53af570*
G04 #@! TF.FileFunction,Copper,L1,Top*
G04 #@! TF.FilePolarity,Positive*
%FSLAX46Y46*%
G04 Gerber Fmt 4.6, Leading zero omitted, Abs format (unit mm)*
G04 Created by KiCad (PCBNEW (5.1.5)-3) date 2024-11-30 00:03:08*
%MOMM*%
%LPD*%
G04 APERTURE LIST*
%ADD10C,0.100000*%
%ADD11C,0.020000*%
%ADD12R,1.450000X0.300000*%
%ADD13O,1.600000X1.000000*%
%ADD14O,2.100000X1.000000*%
%ADD15O,1.700000X1.700000*%
%ADD16R,1.700000X1.700000*%
%ADD17C,0.406400*%
%ADD18C,0.203200*%
%ADD19C,0.304800*%
G04 APERTURE END LIST*
D10*
X47500000Y10400000D02*
X47500000Y14100000D01*
X47500000Y10400000D02*
G75*
G02X45500000Y10400000I-1000000J0D01*
G01*
X45500000Y14100000D02*
G75*
G02X47500000Y14100000I1000000J0D01*
G01*
X85500000Y18081000D02*
X85500000Y6419050D01*
X85500002Y6419049D02*
G75*
G02X70126925Y6933544I-7500002J5830951D01*
G01*
X67871055Y8249999D02*
G75*
G02X70126953Y6933489I756045J-1295529D01*
G01*
X65128900Y8250000D02*
X67871100Y8250000D01*
X62873048Y6933500D02*
G75*
G02X65128947Y8249997I1499852J20970D01*
G01*
X62873061Y6933473D02*
G75*
G02X47500000Y6419001I-7873061J5316527D01*
G01*
X47500023Y18080980D02*
G75*
G02X62873037Y17566510I7499977J-5830980D01*
G01*
X65128949Y16249972D02*
G75*
G02X62873046Y17566469I-756049J1295528D01*
G01*
X65128900Y16250000D02*
X67871100Y16250000D01*
X70126953Y17566480D02*
G75*
G02X67871054Y16249971I-1499853J-20980D01*
G01*
X70126901Y17566472D02*
G75*
G02X85500000Y18081000I7873099J-5316472D01*
G01*
X45500000Y10400000D02*
X45500000Y14100000D01*
X45500000Y6419001D02*
X45500000Y1000000D01*
X45500000Y6419001D02*
G75*
G02X47500000Y6419001I1000000J0D01*
G01*
X47500000Y18080998D02*
G75*
G02X45500000Y18080998I-1000000J0D01*
G01*
X44500000Y24500000D02*
X1000000Y24500000D01*
X44500000Y24500000D02*
G75*
G02X45500000Y23500000I0J-1000000D01*
G01*
X45500000Y18080998D02*
X45500000Y23500000D01*
X45500000Y1000000D02*
G75*
G02X44500000Y0I-1000000J0D01*
G01*
X1000000Y0D02*
X44500000Y0D01*
X0Y23500000D02*
X0Y1000000D01*
X0Y23500000D02*
G75*
G02X1000000Y24500000I1000000J0D01*
G01*
X1000000Y0D02*
G75*
G02X0Y1000000I0J1000000D01*
G01*
G04 #@! TA.AperFunction,SMDPad,CuDef*
D11*
G36*
X35974505Y17073796D02*
G01*
X35998773Y17070196D01*
X36022572Y17064235D01*
X36045671Y17055970D01*
X36067850Y17045480D01*
X36088893Y17032868D01*
X36108599Y17018253D01*
X36126777Y17001777D01*
X36143253Y16983599D01*
X36157868Y16963893D01*
X36170480Y16942850D01*
X36180970Y16920671D01*
X36189235Y16897572D01*
X36195196Y16873773D01*
X36198796Y16849505D01*
X36200000Y16825001D01*
X36200000Y16174999D01*
X36198796Y16150495D01*
X36195196Y16126227D01*
X36189235Y16102428D01*
X36180970Y16079329D01*
X36170480Y16057150D01*
X36157868Y16036107D01*
X36143253Y16016401D01*
X36126777Y15998223D01*
X36108599Y15981747D01*
X36088893Y15967132D01*
X36067850Y15954520D01*
X36045671Y15944030D01*
X36022572Y15935765D01*
X35998773Y15929804D01*
X35974505Y15926204D01*
X35950001Y15925000D01*
X35049999Y15925000D01*
X35025495Y15926204D01*
X35001227Y15929804D01*
X34977428Y15935765D01*
X34954329Y15944030D01*
X34932150Y15954520D01*
X34911107Y15967132D01*
X34891401Y15981747D01*
X34873223Y15998223D01*
X34856747Y16016401D01*
X34842132Y16036107D01*
X34829520Y16057150D01*
X34819030Y16079329D01*
X34810765Y16102428D01*
X34804804Y16126227D01*
X34801204Y16150495D01*
X34800000Y16174999D01*
X34800000Y16825001D01*
X34801204Y16849505D01*
X34804804Y16873773D01*
X34810765Y16897572D01*
X34819030Y16920671D01*
X34829520Y16942850D01*
X34842132Y16963893D01*
X34856747Y16983599D01*
X34873223Y17001777D01*
X34891401Y17018253D01*
X34911107Y17032868D01*
X34932150Y17045480D01*
X34954329Y17055970D01*
X34977428Y17064235D01*
X35001227Y17070196D01*
X35025495Y17073796D01*
X35049999Y17075000D01*
X35950001Y17075000D01*
X35974505Y17073796D01*
G37*
G04 #@! TD.AperFunction*
G04 #@! TA.AperFunction,SMDPad,CuDef*
G36*
X35974505Y19123796D02*
G01*
X35998773Y19120196D01*
X36022572Y19114235D01*
X36045671Y19105970D01*
X36067850Y19095480D01*
X36088893Y19082868D01*
X36108599Y19068253D01*
X36126777Y19051777D01*
X36143253Y19033599D01*
X36157868Y19013893D01*
X36170480Y18992850D01*
X36180970Y18970671D01*
X36189235Y18947572D01*
X36195196Y18923773D01*
X36198796Y18899505D01*
X36200000Y18875001D01*
X36200000Y18224999D01*
X36198796Y18200495D01*
X36195196Y18176227D01*
X36189235Y18152428D01*
X36180970Y18129329D01*
X36170480Y18107150D01*
X36157868Y18086107D01*
X36143253Y18066401D01*
X36126777Y18048223D01*
X36108599Y18031747D01*
X36088893Y18017132D01*
X36067850Y18004520D01*
X36045671Y17994030D01*
X36022572Y17985765D01*
X35998773Y17979804D01*
X35974505Y17976204D01*
X35950001Y17975000D01*
X35049999Y17975000D01*
X35025495Y17976204D01*
X35001227Y17979804D01*
X34977428Y17985765D01*
X34954329Y17994030D01*
X34932150Y18004520D01*
X34911107Y18017132D01*
X34891401Y18031747D01*
X34873223Y18048223D01*
X34856747Y18066401D01*
X34842132Y18086107D01*
X34829520Y18107150D01*
X34819030Y18129329D01*
X34810765Y18152428D01*
X34804804Y18176227D01*
X34801204Y18200495D01*
X34800000Y18224999D01*
X34800000Y18875001D01*
X34801204Y18899505D01*
X34804804Y18923773D01*
X34810765Y18947572D01*
X34819030Y18970671D01*
X34829520Y18992850D01*
X34842132Y19013893D01*
X34856747Y19033599D01*
X34873223Y19051777D01*
X34891401Y19068253D01*
X34911107Y19082868D01*
X34932150Y19095480D01*
X34954329Y19105970D01*
X34977428Y19114235D01*
X35001227Y19120196D01*
X35025495Y19123796D01*
X35049999Y19125000D01*
X35950001Y19125000D01*
X35974505Y19123796D01*
G37*
G04 #@! TD.AperFunction*
D12*
X38805000Y21075000D03*
X38805000Y20600000D03*
X38805000Y15400000D03*
X38805000Y14625000D03*
D13*
X43900000Y22320000D03*
X43900000Y13680000D03*
D14*
X39720000Y22320000D03*
X39720000Y13680000D03*
D12*
X38805000Y17750000D03*
X38805000Y18250000D03*
X38805000Y18750000D03*
X38805000Y17250000D03*
X38805000Y19250000D03*
X38805000Y16750000D03*
X38805000Y19750000D03*
X38805000Y16250000D03*
X38805000Y15700000D03*
X38805000Y20300000D03*
X38805000Y14925000D03*
X38805000Y21375000D03*
D15*
X22750000Y10960000D03*
D16*
X22750000Y13500000D03*
D15*
X66500000Y10960000D03*
D16*
X66500000Y13500000D03*
D17*
X20500000Y11500000D02*
X20500000Y9000000D01*
X20500000Y9000000D02*
X21000000Y8500000D01*
X22500000Y13500000D02*
X20500000Y11500000D01*
X31548600Y8500000D02*
X37673600Y14625000D01*
X37673600Y14625000D02*
X38805000Y14625000D01*
X29000000Y21000000D02*
X22750000Y14756400D01*
X29368600Y21375000D02*
X29000000Y21000000D01*
X21000000Y8500000D02*
X31548600Y8500000D01*
X22750000Y13500000D02*
X22500000Y13500000D01*
X38805000Y21375000D02*
X29368600Y21375000D01*
X22750000Y14756400D02*
X22750000Y13500000D01*
D18*
X38805000Y14625000D02*
X38805000Y14925000D01*
X38805000Y21075000D02*
X38805000Y21375000D01*
D17*
X36993400Y15500000D02*
X38000000Y15500000D01*
X32453400Y10960000D02*
X36993400Y15500000D01*
X22750000Y10960000D02*
X32453400Y10960000D01*
D18*
X38805000Y15400000D02*
X38805000Y15700000D01*
D19*
X38000000Y15500000D02*
X38605000Y15500000D01*
X38605000Y15500000D02*
X38805000Y15700000D01*
X38000000Y20500000D02*
X38705000Y20500000D01*
X38705000Y20500000D02*
X38805000Y20600000D01*
D17*
X24460000Y10960000D02*
X34000000Y20500000D01*
X34000000Y20500000D02*
X38000000Y20500000D01*
D18*
X38805000Y20300000D02*
X38805000Y20600000D01*
D19*
X37750000Y17750000D02*
X37722032Y17722032D01*
X38805000Y17750000D02*
X37750000Y17750000D01*
X37722032Y17722032D02*
X37671232Y17671232D01*
D17*
X36500000Y16500000D02*
X37671232Y17671232D01*
X35500000Y16500000D02*
X36500000Y16500000D01*
D19*
X37775200Y18250000D02*
X38805000Y18250000D01*
D17*
X35500000Y18550000D02*
X37450000Y18550000D01*
D19*
X37755241Y18244759D02*
X37450000Y18550000D01*
X37769959Y18244759D02*
X37775200Y18250000D01*
X37769959Y18244759D02*
X37755241Y18244759D01*
D17*
X37450000Y18550000D02*
X37610000Y18390000D01*
M02*
