G04 #@! TF.GenerationSoftware,KiCad,Pcbnew,(5.1.5)-3*
G04 #@! TF.CreationDate,2024-11-30T00:03:08+01:00*
G04 #@! TF.ProjectId,tan-usb-pwr,74616e2d-7573-4622-9d70-77722e6b6963,B*
G04 #@! TF.SameCoordinates,PX57bcf00PY53af570*
G04 #@! TF.FileFunction,Legend,Top*
G04 #@! TF.FilePolarity,Positive*
%FSLAX46Y46*%
G04 Gerber Fmt 4.6, Leading zero omitted, Abs format (unit mm)*
G04 Created by KiCad (PCBNEW (5.1.5)-3) date 2024-11-30 00:03:08*
%MOMM*%
%LPD*%
G04 APERTURE LIST*
%ADD10C,0.100000*%
%ADD11C,0.150000*%
%ADD12C,0.250000*%
%ADD13C,0.120000*%
G04 APERTURE END LIST*
D10*
X47500000Y10400000D02*
X47500000Y14100000D01*
X47500000Y10400000D02*
G75*
G02X45500000Y10400000I-1000000J0D01*
G01*
X45500000Y14100000D02*
G75*
G02X47500000Y14100000I1000000J0D01*
G01*
X85500000Y18081000D02*
X85500000Y6419050D01*
X85500002Y6419049D02*
G75*
G02X70126925Y6933544I-7500002J5830951D01*
G01*
X67871055Y8249999D02*
G75*
G02X70126953Y6933489I756045J-1295529D01*
G01*
X65128900Y8250000D02*
X67871100Y8250000D01*
X62873048Y6933500D02*
G75*
G02X65128947Y8249997I1499852J20970D01*
G01*
X62873061Y6933473D02*
G75*
G02X47500000Y6419001I-7873061J5316527D01*
G01*
X47500023Y18080980D02*
G75*
G02X62873037Y17566510I7499977J-5830980D01*
G01*
X65128949Y16249972D02*
G75*
G02X62873046Y17566469I-756049J1295528D01*
G01*
X65128900Y16250000D02*
X67871100Y16250000D01*
X70126953Y17566480D02*
G75*
G02X67871054Y16249971I-1499853J-20980D01*
G01*
X70126901Y17566472D02*
G75*
G02X85500000Y18081000I7873099J-5316472D01*
G01*
D11*
X2192738Y21539286D02*
X2573690Y21539286D01*
X2335595Y21872620D02*
X2335595Y21015477D01*
X2383214Y20920239D01*
X2478452Y20872620D01*
X2573690Y20872620D01*
X3335595Y20872620D02*
X3335595Y21396429D01*
X3287976Y21491667D01*
X3192738Y21539286D01*
X3002261Y21539286D01*
X2907023Y21491667D01*
X3335595Y20920239D02*
X3240357Y20872620D01*
X3002261Y20872620D01*
X2907023Y20920239D01*
X2859404Y21015477D01*
X2859404Y21110715D01*
X2907023Y21205953D01*
X3002261Y21253572D01*
X3240357Y21253572D01*
X3335595Y21301191D01*
X3811785Y21539286D02*
X3811785Y20872620D01*
X3811785Y21444048D02*
X3859404Y21491667D01*
X3954642Y21539286D01*
X4097500Y21539286D01*
X4192738Y21491667D01*
X4240357Y21396429D01*
X4240357Y20872620D01*
X4716547Y21253572D02*
X5478452Y21253572D01*
X6383214Y21539286D02*
X6383214Y20872620D01*
X5954642Y21539286D02*
X5954642Y21015477D01*
X6002261Y20920239D01*
X6097500Y20872620D01*
X6240357Y20872620D01*
X6335595Y20920239D01*
X6383214Y20967858D01*
X6811785Y20920239D02*
X6907023Y20872620D01*
X7097500Y20872620D01*
X7192738Y20920239D01*
X7240357Y21015477D01*
X7240357Y21063096D01*
X7192738Y21158334D01*
X7097500Y21205953D01*
X6954642Y21205953D01*
X6859404Y21253572D01*
X6811785Y21348810D01*
X6811785Y21396429D01*
X6859404Y21491667D01*
X6954642Y21539286D01*
X7097500Y21539286D01*
X7192738Y21491667D01*
X7668928Y20872620D02*
X7668928Y21872620D01*
X7668928Y21491667D02*
X7764166Y21539286D01*
X7954642Y21539286D01*
X8049880Y21491667D01*
X8097500Y21444048D01*
X8145119Y21348810D01*
X8145119Y21063096D01*
X8097500Y20967858D01*
X8049880Y20920239D01*
X7954642Y20872620D01*
X7764166Y20872620D01*
X7668928Y20920239D01*
X8573690Y21253572D02*
X9335595Y21253572D01*
X9811785Y21539286D02*
X9811785Y20539286D01*
X9811785Y21491667D02*
X9907023Y21539286D01*
X10097500Y21539286D01*
X10192738Y21491667D01*
X10240357Y21444048D01*
X10287976Y21348810D01*
X10287976Y21063096D01*
X10240357Y20967858D01*
X10192738Y20920239D01*
X10097500Y20872620D01*
X9907023Y20872620D01*
X9811785Y20920239D01*
X10621309Y21539286D02*
X10811785Y20872620D01*
X11002261Y21348810D01*
X11192738Y20872620D01*
X11383214Y21539286D01*
X11764166Y20872620D02*
X11764166Y21539286D01*
X11764166Y21348810D02*
X11811785Y21444048D01*
X11859404Y21491667D01*
X11954642Y21539286D01*
X12049880Y21539286D01*
X13716547Y20872620D02*
X13383214Y21348810D01*
X13145119Y20872620D02*
X13145119Y21872620D01*
X13526071Y21872620D01*
X13621309Y21825000D01*
X13668928Y21777381D01*
X13716547Y21682143D01*
X13716547Y21539286D01*
X13668928Y21444048D01*
X13621309Y21396429D01*
X13526071Y21348810D01*
X13145119Y21348810D01*
X14526071Y20920239D02*
X14430833Y20872620D01*
X14240357Y20872620D01*
X14145119Y20920239D01*
X14097500Y21015477D01*
X14097500Y21396429D01*
X14145119Y21491667D01*
X14240357Y21539286D01*
X14430833Y21539286D01*
X14526071Y21491667D01*
X14573690Y21396429D01*
X14573690Y21301191D01*
X14097500Y21205953D01*
X14907023Y21539286D02*
X15145119Y20872620D01*
X15383214Y21539286D01*
X15764166Y20967858D02*
X15811785Y20920239D01*
X15764166Y20872620D01*
X15716547Y20920239D01*
X15764166Y20967858D01*
X15764166Y20872620D01*
X17335595Y21396429D02*
X17478452Y21348810D01*
X17526071Y21301191D01*
X17573690Y21205953D01*
X17573690Y21063096D01*
X17526071Y20967858D01*
X17478452Y20920239D01*
X17383214Y20872620D01*
X17002261Y20872620D01*
X17002261Y21872620D01*
X17335595Y21872620D01*
X17430833Y21825000D01*
X17478452Y21777381D01*
X17526071Y21682143D01*
X17526071Y21586905D01*
X17478452Y21491667D01*
X17430833Y21444048D01*
X17335595Y21396429D01*
X17002261Y21396429D01*
X2335595Y19222620D02*
X2335595Y20222620D01*
X2573690Y20222620D01*
X2716547Y20175000D01*
X2811785Y20079762D01*
X2859404Y19984524D01*
X2907023Y19794048D01*
X2907023Y19651191D01*
X2859404Y19460715D01*
X2811785Y19365477D01*
X2716547Y19270239D01*
X2573690Y19222620D01*
X2335595Y19222620D01*
X3764166Y19222620D02*
X3764166Y19746429D01*
X3716547Y19841667D01*
X3621309Y19889286D01*
X3430833Y19889286D01*
X3335595Y19841667D01*
X3764166Y19270239D02*
X3668928Y19222620D01*
X3430833Y19222620D01*
X3335595Y19270239D01*
X3287976Y19365477D01*
X3287976Y19460715D01*
X3335595Y19555953D01*
X3430833Y19603572D01*
X3668928Y19603572D01*
X3764166Y19651191D01*
X4240357Y19889286D02*
X4240357Y19222620D01*
X4240357Y19794048D02*
X4287976Y19841667D01*
X4383214Y19889286D01*
X4526071Y19889286D01*
X4621309Y19841667D01*
X4668928Y19746429D01*
X4668928Y19222620D01*
X5145119Y19222620D02*
X5145119Y19889286D01*
X5145119Y20222620D02*
X5097500Y20175000D01*
X5145119Y20127381D01*
X5192738Y20175000D01*
X5145119Y20222620D01*
X5145119Y20127381D01*
X6002261Y19270239D02*
X5907023Y19222620D01*
X5716547Y19222620D01*
X5621309Y19270239D01*
X5573690Y19365477D01*
X5573690Y19746429D01*
X5621309Y19841667D01*
X5716547Y19889286D01*
X5907023Y19889286D01*
X6002261Y19841667D01*
X6049880Y19746429D01*
X6049880Y19651191D01*
X5573690Y19555953D01*
X6621309Y19222620D02*
X6526071Y19270239D01*
X6478452Y19365477D01*
X6478452Y20222620D01*
X7716547Y19270239D02*
X7859404Y19222620D01*
X8097500Y19222620D01*
X8192738Y19270239D01*
X8240357Y19317858D01*
X8287976Y19413096D01*
X8287976Y19508334D01*
X8240357Y19603572D01*
X8192738Y19651191D01*
X8097500Y19698810D01*
X7907023Y19746429D01*
X7811785Y19794048D01*
X7764166Y19841667D01*
X7716547Y19936905D01*
X7716547Y20032143D01*
X7764166Y20127381D01*
X7811785Y20175000D01*
X7907023Y20222620D01*
X8145119Y20222620D01*
X8287976Y20175000D01*
X8573690Y19889286D02*
X8954642Y19889286D01*
X8716547Y20222620D02*
X8716547Y19365477D01*
X8764166Y19270239D01*
X8859404Y19222620D01*
X8954642Y19222620D01*
X9716547Y19222620D02*
X9716547Y19746429D01*
X9668928Y19841667D01*
X9573690Y19889286D01*
X9383214Y19889286D01*
X9287976Y19841667D01*
X9716547Y19270239D02*
X9621309Y19222620D01*
X9383214Y19222620D01*
X9287976Y19270239D01*
X9240357Y19365477D01*
X9240357Y19460715D01*
X9287976Y19555953D01*
X9383214Y19603572D01*
X9621309Y19603572D01*
X9716547Y19651191D01*
X10192738Y19222620D02*
X10192738Y19889286D01*
X10192738Y19698810D02*
X10240357Y19794048D01*
X10287976Y19841667D01*
X10383214Y19889286D01*
X10478452Y19889286D01*
X10811785Y19222620D02*
X10811785Y20222620D01*
X10907023Y19603572D02*
X11192738Y19222620D01*
X11192738Y19889286D02*
X10811785Y19508334D01*
X12002261Y19270239D02*
X11907023Y19222620D01*
X11716547Y19222620D01*
X11621309Y19270239D01*
X11573690Y19365477D01*
X11573690Y19746429D01*
X11621309Y19841667D01*
X11716547Y19889286D01*
X11907023Y19889286D01*
X12002261Y19841667D01*
X12049880Y19746429D01*
X12049880Y19651191D01*
X11573690Y19555953D01*
D12*
X26251785Y11876429D02*
X25537499Y11876429D01*
X25466071Y11162143D01*
X25537499Y11233572D01*
X25680357Y11305000D01*
X26037499Y11305000D01*
X26180357Y11233572D01*
X26251785Y11162143D01*
X26323214Y11019286D01*
X26323214Y10662143D01*
X26251785Y10519286D01*
X26180357Y10447858D01*
X26037499Y10376429D01*
X25680357Y10376429D01*
X25537499Y10447858D01*
X25466071Y10519286D01*
X26751785Y11876429D02*
X27251785Y10376429D01*
X27751785Y11876429D01*
X26323214Y14250000D02*
X26180357Y14321429D01*
X25966071Y14321429D01*
X25751785Y14250000D01*
X25608928Y14107143D01*
X25537499Y13964286D01*
X25466071Y13678572D01*
X25466071Y13464286D01*
X25537499Y13178572D01*
X25608928Y13035715D01*
X25751785Y12892858D01*
X25966071Y12821429D01*
X26108928Y12821429D01*
X26323214Y12892858D01*
X26394642Y12964286D01*
X26394642Y13464286D01*
X26108928Y13464286D01*
X27037499Y12821429D02*
X27037499Y14321429D01*
X27894642Y12821429D01*
X27894642Y14321429D01*
X28608928Y12821429D02*
X28608928Y14321429D01*
X28966071Y14321429D01*
X29180357Y14250000D01*
X29323214Y14107143D01*
X29394642Y13964286D01*
X29466071Y13678572D01*
X29466071Y13464286D01*
X29394642Y13178572D01*
X29323214Y13035715D01*
X29180357Y12892858D01*
X28966071Y12821429D01*
X28608928Y12821429D01*
D10*
X45500000Y10400000D02*
X45500000Y14100000D01*
X45500000Y6419001D02*
X45500000Y1000000D01*
X45500000Y6419001D02*
G75*
G02X47500000Y6419001I1000000J0D01*
G01*
X47500000Y18080998D02*
G75*
G02X45500000Y18080998I-1000000J0D01*
G01*
X44500000Y24500000D02*
X1000000Y24500000D01*
X44500000Y24500000D02*
G75*
G02X45500000Y23500000I0J-1000000D01*
G01*
X45500000Y18080998D02*
X45500000Y23500000D01*
X45500000Y1000000D02*
G75*
G02X44500000Y0I-1000000J0D01*
G01*
X1000000Y0D02*
X44500000Y0D01*
X0Y23500000D02*
X0Y1000000D01*
X0Y23500000D02*
G75*
G02X1000000Y24500000I1000000J0D01*
G01*
X1000000Y0D02*
G75*
G02X0Y1000000I0J1000000D01*
G01*
D12*
X77510757Y13178929D02*
X76796472Y13178929D01*
X76725043Y12464643D01*
X76796472Y12536072D01*
X76939329Y12607500D01*
X77296472Y12607500D01*
X77439329Y12536072D01*
X77510757Y12464643D01*
X77582186Y12321786D01*
X77582186Y11964643D01*
X77510757Y11821786D01*
X77439329Y11750358D01*
X77296472Y11678929D01*
X76939329Y11678929D01*
X76796472Y11750358D01*
X76725043Y11821786D01*
X78010757Y13178929D02*
X78510757Y11678929D01*
X79010757Y13178929D01*
X54060666Y13107500D02*
X53917809Y13178929D01*
X53703524Y13178929D01*
X53489238Y13107500D01*
X53346381Y12964643D01*
X53274952Y12821786D01*
X53203524Y12536072D01*
X53203524Y12321786D01*
X53274952Y12036072D01*
X53346381Y11893215D01*
X53489238Y11750358D01*
X53703524Y11678929D01*
X53846381Y11678929D01*
X54060666Y11750358D01*
X54132095Y11821786D01*
X54132095Y12321786D01*
X53846381Y12321786D01*
X54774952Y11678929D02*
X54774952Y13178929D01*
X55632095Y11678929D01*
X55632095Y13178929D01*
X56346381Y11678929D02*
X56346381Y13178929D01*
X56703524Y13178929D01*
X56917809Y13107500D01*
X57060666Y12964643D01*
X57132095Y12821786D01*
X57203524Y12536072D01*
X57203524Y12321786D01*
X57132095Y12036072D01*
X57060666Y11893215D01*
X56917809Y11750358D01*
X56703524Y11678929D01*
X56346381Y11678929D01*
D13*
X34790000Y17786252D02*
X34790000Y17263748D01*
X36210000Y17786252D02*
X36210000Y17263748D01*
X21420000Y14830000D02*
X22750000Y14830000D01*
X21420000Y13500000D02*
X21420000Y14830000D01*
X21420000Y12230000D02*
X24080000Y12230000D01*
X24080000Y12230000D02*
X24080000Y9630000D01*
X21420000Y12230000D02*
X21420000Y9630000D01*
X21420000Y9630000D02*
X24080000Y9630000D01*
X65170000Y14830000D02*
X66500000Y14830000D01*
X65170000Y13500000D02*
X65170000Y14830000D01*
X65170000Y12230000D02*
X67830000Y12230000D01*
X67830000Y12230000D02*
X67830000Y9630000D01*
X65170000Y12230000D02*
X65170000Y9630000D01*
X65170000Y9630000D02*
X67830000Y9630000D01*
M02*
